<svg width="16" height="17" viewBox="0 0 16 17" fill="none" xmlns="http://www.w3.org/2000/svg">
<path fill-rule="evenodd" clip-rule="evenodd" d="M10.8994 5.11996C10.086 4.34423 9.00056 3.92163 7.87748 3.93899C5.82236 3.93899 4.07696 5.32546 3.45463 7.19243C3.12465 8.17078 3.12465 9.23022 3.45463 10.2086H3.45752C4.08274 12.0727 5.82525 13.4591 7.88037 13.4591C8.94122 13.4591 9.85197 13.1878 10.5578 12.7085V12.7066C11.3886 12.1566 11.9559 11.2911 12.1325 10.3128H7.87748V7.27932H15.3078C15.4004 7.80612 15.4438 8.34451 15.4438 8.88C15.4438 11.276 14.5875 13.3016 13.0977 14.6736L13.0992 14.6748C11.7938 15.879 10.0021 16.5766 7.87748 16.5766C4.899 16.5766 2.17524 14.8977 0.83796 12.2376C-0.279323 10.0117 -0.27932 7.38929 0.837968 5.1634C2.17524 2.50043 4.899 0.821576 7.87748 0.821576C9.83418 0.798419 11.7243 1.53363 13.1484 2.87091L10.8994 5.11996Z" fill="#A2A2A2"/>
</svg>
