<svg width="16" height="16" viewBox="0 0 16 16" fill="none" xmlns="http://www.w3.org/2000/svg">
<path d="M14.2744 0.821045H1.88155C1.2879 0.821045 0.807861 1.28972 0.807861 1.86917V14.3131C0.807861 14.8926 1.2879 15.3641 1.88155 15.3641H14.2744C14.868 15.3641 15.3509 14.8926 15.3509 14.316V1.86917C15.3509 1.28972 14.868 0.821045 14.2744 0.821045ZM5.12249 13.2139H2.96375V6.27185H5.12249V13.2139ZM4.04312 5.32598C3.35005 5.32598 2.79049 4.76641 2.79049 4.07619C2.79049 3.38596 3.35005 2.82639 4.04312 2.82639C4.73335 2.82639 5.29291 3.38596 5.29291 4.07619C5.29291 4.76357 4.73335 5.32598 4.04312 5.32598ZM13.2007 13.2139H11.0448V9.83944C11.0448 9.03559 11.0306 7.99883 9.92283 7.99883C8.80086 7.99883 8.63043 8.87653 8.63043 9.78263V13.2139H6.47738V6.27185H8.54522V7.22055H8.57362C8.8605 6.67519 9.56493 6.09858 10.6131 6.09858C12.7974 6.09858 13.2007 7.53584 13.2007 9.40485V13.2139Z" fill="#A2A2A2"/>
</svg>
