<svg width="16" height="11" viewBox="0 0 16 11" fill="none" xmlns="http://www.w3.org/2000/svg">
<path d="M15.3959 2.5094C15.3959 2.5094 15.2502 1.4806 14.8014 1.02886C14.2331 0.434313 13.5977 0.431398 13.3063 0.396425C11.2195 0.244873 8.08647 0.244873 8.08647 0.244873H8.08065C8.08065 0.244873 4.94761 0.244873 2.86086 0.396425C2.56941 0.431398 1.93406 0.434313 1.36574 1.02886C0.916918 1.4806 0.77411 2.5094 0.77411 2.5094C0.77411 2.5094 0.622559 3.7189 0.622559 4.92549V6.05629C0.622559 7.26288 0.771196 8.47238 0.771196 8.47238C0.771196 8.47238 0.916918 9.50118 1.36283 9.95292C1.93115 10.5475 2.67725 10.5271 3.0095 10.5912C4.20442 10.7048 8.08356 10.7398 8.08356 10.7398C8.08356 10.7398 11.2195 10.734 13.3063 10.5854C13.5977 10.5504 14.2331 10.5475 14.8014 9.95292C15.2502 9.50118 15.3959 8.47238 15.3959 8.47238C15.3959 8.47238 15.5446 7.26579 15.5446 6.05629V4.92549C15.5446 3.7189 15.3959 2.5094 15.3959 2.5094ZM6.54181 7.429V3.2351L10.5725 5.33934L6.54181 7.429Z" fill="#A2A2A2"/>
</svg>
