<svg width="13" height="10" viewBox="0 0 13 10" fill="none" xmlns="http://www.w3.org/2000/svg">
<path d="M3.43473 0.380646C5.5074 0.199615 7.59179 0.199615 9.66445 0.380646L10.663 0.467865C11.3278 0.525927 11.8971 0.924324 12.1921 1.4942C12.2299 1.5671 12.2016 1.65537 12.1321 1.69863L7.98893 4.27564C7.10035 4.82833 5.97991 4.83993 5.08019 4.30574L0.90937 1.82943C0.841986 1.78942 0.811056 1.70707 0.841423 1.63458C1.1113 0.990441 1.71805 0.530585 2.43615 0.467865L3.43473 0.380646Z" fill="#A2A2A2"/>
<path d="M0.83803 2.9446C0.734905 2.88337 0.603321 2.94926 0.5913 3.069C0.423527 4.7403 0.464133 6.42741 0.713117 8.09104C0.844377 8.96808 1.55677 9.64044 2.43615 9.71725L3.43473 9.80446C5.5074 9.98549 7.59179 9.98549 9.66445 9.80446L10.663 9.71725C11.5424 9.64044 12.2548 8.96808 12.3861 8.09104C12.6423 6.37893 12.6778 4.64195 12.4927 2.92294C12.4797 2.80234 12.3459 2.73767 12.2432 2.80151L8.51098 5.12296C7.30878 5.87073 5.79289 5.88641 4.57562 5.16369L0.83803 2.9446Z" fill="#A2A2A2"/>
</svg>
