<svg width="13" height="16" viewBox="0 0 13 16" fill="none" xmlns="http://www.w3.org/2000/svg">
<path fill-rule="evenodd" clip-rule="evenodd" d="M0.90244 6.14112C1.15466 3.13476 3.71167 0.821045 6.78195 0.821045H7.09898C10.1693 0.821045 12.7263 3.13476 12.9785 6.14112C13.1143 7.75978 12.6054 9.36704 11.559 10.6244L8.04101 14.8515C7.4722 15.535 6.40872 15.535 5.83991 14.8515L2.32193 10.6244C1.27554 9.36704 0.766641 7.75978 0.90244 6.14112ZM6.94044 3.52529C5.01497 3.52529 3.45407 5.05889 3.45407 6.95068C3.45407 8.84246 5.01497 10.3761 6.94044 10.3761C8.86592 10.3761 10.4268 8.84246 10.4268 6.95068C10.4268 5.05889 8.86592 3.52529 6.94044 3.52529Z" fill="#A2A2A2"/>
</svg>
