<svg width="13" height="10" viewBox="0 0 13 10" fill="none" xmlns="http://www.w3.org/2000/svg">
<path d="M3.43496 0.341415C5.50762 0.169398 7.59199 0.169398 9.66464 0.341415L10.6632 0.424291C11.328 0.479462 11.8973 0.858022 12.1923 1.39952C12.2301 1.4688 12.2018 1.55267 12.1322 1.59377L7.98913 4.04247C7.10055 4.56764 5.98012 4.57866 5.0804 4.07107L0.909612 1.71806C0.842228 1.68005 0.811298 1.60179 0.841666 1.53292C1.11154 0.920847 1.71829 0.483888 2.43638 0.424291L3.43496 0.341415Z" fill="#A2A2A2"/>
<path d="M0.838272 2.7777C0.735147 2.71952 0.603565 2.78213 0.591544 2.89592C0.423772 4.48399 0.464377 6.0871 0.71336 7.6679C0.84462 8.50127 1.55701 9.14015 2.43638 9.21313L3.43496 9.29601C5.50761 9.46803 7.592 9.46803 9.66465 9.29601L10.6632 9.21313C11.5426 9.14015 12.255 8.50127 12.3862 7.6679C12.6425 6.04104 12.678 4.39054 12.4929 2.75712C12.4799 2.64253 12.3461 2.58108 12.2434 2.64174L8.51118 4.8476C7.30898 5.55814 5.79311 5.57304 4.57584 4.8863L0.838272 2.7777Z" fill="#A2A2A2"/>
</svg>
