<svg width="16" height="16" viewBox="0 0 16 16" fill="none" xmlns="http://www.w3.org/2000/svg">
<path fill-rule="evenodd" clip-rule="evenodd" d="M10.8994 4.99405C10.086 4.25694 9.00057 3.85538 7.87749 3.87188C5.82237 3.87188 4.07697 5.18932 3.45464 6.96333C3.12466 7.89296 3.12466 8.89965 3.45463 9.82929H3.45752C4.08274 11.6006 5.82526 12.918 7.88039 12.918C8.94124 12.918 9.85198 12.6602 10.5578 12.2048V12.2029C11.3886 11.6803 11.9559 10.858 12.1325 9.92832H7.8775V7.04589H15.3078C15.4004 7.54646 15.4438 8.05804 15.4438 8.56687C15.4438 10.8435 14.5876 12.7684 13.0977 14.072L13.0992 14.0732C11.7938 15.2174 10.0021 15.8802 7.87749 15.8802C4.89901 15.8802 2.17524 14.285 0.837962 11.7573C-0.279323 9.64227 -0.279321 7.15039 0.83797 5.03533C2.17525 2.50494 4.89901 0.909684 7.87749 0.909684C9.8342 0.887681 11.7243 1.58629 13.1485 2.85698L10.8994 4.99405Z" fill="#A2A2A2"/>
</svg>
