<svg width="217" height="51" viewBox="0 0 217 51" fill="none" xmlns="http://www.w3.org/2000/svg">
<g clip-path="url(#clip0_165_1857)">
<path d="M0.0221776 25.1384C0.0221776 17.3826 0.0362954 9.62681 0 1.871C0 1.01869 0.217769 0.818271 1.04853 0.834467C4.1034 0.887104 7.1623 0.9033 10.2192 0.834467C11.1971 0.810174 11.3443 1.14826 11.3302 2.01272C11.2838 5.14864 11.3302 8.28862 11.2959 11.4205C11.2959 12.0056 11.4734 12.2303 12.0158 12.3882C22.1705 15.2873 32.317 18.2147 42.4737 21.0935C43.3186 21.3324 43.6009 21.6684 43.5969 22.5916C43.5512 31.1889 43.5512 39.7876 43.5969 48.3876C43.5969 49.2197 43.4154 49.4484 42.5645 49.4403C37.8272 49.3945 33.0907 49.3945 28.3548 49.4403C27.5744 49.4403 27.4252 49.2176 27.4313 48.4848C27.4656 43.6969 27.4313 38.909 27.4635 34.1211C27.4635 33.4388 27.3325 33.2019 26.5985 33.2121C23.4072 33.2566 20.2159 33.2566 17.0246 33.2121C16.3108 33.2019 16.1374 33.3963 16.1414 34.1028C16.1736 38.8584 16.1273 43.6179 16.1857 48.3653C16.1978 49.3067 15.9034 49.4444 15.0666 49.4363C10.3966 49.3958 5.72661 49.3958 1.0566 49.4363C0.229869 49.4363 0.0040284 49.2561 0.00806122 48.4018C0.036291 40.65 0.0221776 32.8942 0.0221776 25.1384Z" fill="#A2A2A2"/>
<path d="M72.5951 23.6626C76.0714 21.1908 79.711 20.5753 83.6007 21.8264C87.9521 23.2254 91.1078 27.5578 91.134 32.1412C91.1683 37.6377 91.134 43.1342 91.1542 48.6286C91.1542 49.2137 91.0715 49.4526 90.4061 49.4384C88.7627 49.3817 87.1133 49.3777 85.4699 49.4384C84.75 49.4668 84.6775 49.1833 84.6795 48.58C84.6902 43.8238 84.6795 39.0697 84.6472 34.3175C84.6447 33.6438 84.5771 32.9719 84.4456 32.3113C83.4857 27.5578 79.7856 26.7561 76.5936 27.6549C74.1961 28.319 73.2262 30.2564 72.8088 32.54C72.646 33.5721 72.5785 34.6172 72.6072 35.6618C72.6072 39.978 72.5911 44.2942 72.6233 48.6185C72.6233 49.2805 72.454 49.4627 71.7966 49.4445C70.1532 49.3959 68.5058 49.402 66.8604 49.4445C66.2857 49.4566 66.1426 49.2845 66.1426 48.7177C66.1587 36.7813 66.1587 24.8443 66.1426 12.9066C66.1426 12.3377 66.2898 12.1696 66.8604 12.1838C68.5058 12.2223 70.1532 12.2304 71.7986 12.1838C72.46 12.1656 72.6294 12.3518 72.6233 13.0118C72.583 16.502 72.5951 20.0186 72.5951 23.6626Z" fill="#A2A2A2"/>
<path d="M112.1 50.1308C103.888 50.0944 97.5378 43.7132 97.564 35.5201C97.5903 27.5315 104.129 21.1199 112.177 21.1888C120.38 21.2596 126.695 27.6671 126.665 35.8481C126.635 43.7922 120.13 50.1652 112.1 50.1308ZM120.21 35.6922C120.222 34.8827 120.142 34.0745 119.972 33.2831C119.166 29.5317 116.311 27.1711 112.375 26.993C108.612 26.825 105.519 29.0478 104.424 32.6838C104.079 33.9181 103.953 35.2036 104.051 36.4817C104.347 41.9479 109.019 45.3996 114.302 44.0331C118.012 43.0714 120.202 39.9841 120.21 35.6922Z" fill="#A2A2A2"/>
<path d="M133.087 30.7483C133.087 28.0517 133.111 25.3531 133.071 22.6504C133.061 22.0046 133.249 21.8689 133.856 21.8851C135.501 21.9276 137.148 21.9337 138.794 21.8851C139.441 21.8649 139.558 22.0714 139.554 22.6747C139.528 27.1933 139.544 31.712 139.538 36.2387C139.524 37.3852 139.66 38.5286 139.941 39.6399C140.683 42.4742 142.74 44.1605 145.474 44.1707C148.406 44.1707 150.469 42.5754 151.239 39.6783C151.531 38.501 151.667 37.2899 151.642 36.0768C151.642 31.6594 151.66 27.2419 151.62 22.8245C151.62 22.0694 151.79 21.8608 152.548 21.8912C154.161 21.958 155.774 21.9378 157.387 21.8912C157.96 21.8791 158.109 22.0471 158.107 22.616C158.085 27.9444 158.159 33.2729 158.077 38.5993C157.982 44.6727 153.439 49.4485 147.412 50.0316C143.117 50.4365 139.276 49.4647 136.156 46.3348C133.993 44.1666 133.19 41.4133 133.109 38.4394C133.027 35.8703 133.087 33.3053 133.087 30.7483Z" fill="#A2A2A2"/>
<path d="M179.263 27.5658C174.779 27.5658 170.516 27.5476 166.251 27.5841C165.522 27.5841 165.269 27.4464 165.312 26.6649C165.386 25.2863 165.352 23.9015 165.324 22.5208C165.324 22.0511 165.425 21.8872 165.929 21.8892C172.785 21.9054 179.635 21.9054 186.48 21.8892C186.93 21.8892 187.198 21.96 187.111 22.4824C187.105 22.5497 187.105 22.6175 187.111 22.6848C187.111 24.1323 187.416 25.675 187.017 27.0051C186.617 28.3351 185.284 29.2583 184.345 30.3475C180.536 34.773 176.709 39.1844 172.756 43.7516H173.865C178.265 43.7516 182.663 43.7698 187.063 43.7334C187.775 43.7334 187.966 43.9055 187.936 44.6161C187.875 45.9947 187.894 47.3795 187.936 48.7602C187.95 49.2926 187.791 49.4303 187.267 49.4283C179.913 49.4121 172.559 49.4121 165.205 49.4283C164.699 49.4283 164.507 49.323 164.523 48.7703C164.565 47.3896 164.565 46.0082 164.523 44.6262C164.507 44.1099 164.79 43.8285 165.076 43.5066C169.661 38.3644 174.246 33.2202 178.83 28.074C178.929 27.9586 179.029 27.8391 179.263 27.5658Z" fill="#A2A2A2"/>
<path d="M207.469 27.5658H202.831C200.008 27.5658 197.185 27.5415 194.362 27.584C193.678 27.5941 193.531 27.3816 193.555 26.7418C193.602 25.3611 193.582 23.9784 193.555 22.5977C193.555 22.1382 193.578 21.881 194.178 21.8831C201.034 21.9087 207.885 21.9087 214.73 21.8831C215.214 21.8831 215.357 22.0147 215.347 22.5026C215.315 23.8833 215.308 25.266 215.347 26.6467C215.363 27.1569 215.091 27.4565 214.804 27.7764C210.314 32.959 205.826 38.1444 201.339 43.3325L200.988 43.7475H202.212C206.545 43.7475 210.882 43.7637 215.208 43.7313C215.911 43.7313 216.216 43.8245 216.161 44.6363C216.081 45.9785 216.117 47.3309 216.161 48.6852C216.176 49.2197 216.079 49.4363 215.47 49.4343C208.115 49.4114 200.761 49.4114 193.408 49.4343C192.858 49.4343 192.688 49.2582 192.761 48.75C192.768 48.6496 192.768 48.5488 192.761 48.4484C192.773 46.9988 192.424 45.4116 192.9 44.1423C193.36 42.9094 194.662 41.9903 195.6 40.9375L206.87 28.2906C207.035 28.0962 207.194 27.8958 207.469 27.5658Z" fill="#A2A2A2"/>
</g>
<defs>
<clipPath id="clip0_165_1857">
<rect width="216.172" height="49.3023" fill="white" transform="translate(0 0.826416)"/>
</clipPath>
</defs>
</svg>
