<svg width="16" height="15" viewBox="0 0 16 15" fill="none" xmlns="http://www.w3.org/2000/svg">
<path d="M14.2741 0.90918H1.8813C1.28765 0.90918 0.807617 1.35452 0.807617 1.90511V13.7295C0.807617 14.2801 1.28765 14.7281 1.8813 14.7281H14.2741C14.8677 14.7281 15.3506 14.2801 15.3506 13.7322V1.90511C15.3506 1.35452 14.8677 0.90918 14.2741 0.90918ZM5.12222 12.685H2.9635V6.08858H5.12222V12.685ZM4.04286 5.18981C3.3498 5.18981 2.79023 4.65811 2.79023 4.00225C2.79023 3.34639 3.3498 2.81468 4.04286 2.81468C4.73308 2.81468 5.29265 3.34639 5.29265 4.00225C5.29265 4.65541 4.73308 5.18981 4.04286 5.18981ZM13.2004 12.685H11.0445V9.47854C11.0445 8.71472 11.0303 7.72958 9.92254 7.72958C8.80057 7.72958 8.63014 8.56357 8.63014 9.42456V12.685H6.4771V6.08858H8.54493V6.99005H8.57333C8.86022 6.47184 9.56464 5.92394 10.6128 5.92394C12.797 5.92394 13.2004 7.28964 13.2004 9.06559V12.685Z" fill="#A2A2A2"/>
</svg>
