<svg width="27" height="32" viewBox="0 0 27 32" fill="none" xmlns="http://www.w3.org/2000/svg">
<path fill-rule="evenodd" clip-rule="evenodd" d="M0.0480783 11.7061C0.609996 5.09102 6.30668 0 13.1468 0H13.8532C20.6933 0 26.39 5.09102 26.9519 11.7061C27.2545 15.2677 26.1207 18.8043 23.7895 21.5709L15.9519 30.8721C14.6846 32.376 12.3154 32.376 11.0481 30.8721L3.21052 21.5709C0.879288 18.8043 -0.254463 15.2677 0.0480783 11.7061ZM13.5 5.95033C9.21026 5.95033 5.73277 9.3248 5.73277 13.4874C5.73277 17.65 9.21026 21.0245 13.5 21.0245C17.7897 21.0245 21.2671 17.65 21.2671 13.4874C21.2671 9.3248 17.7897 5.95033 13.5 5.95033Z" fill="#16274C"/>
</svg>
