<svg width="13" height="15" viewBox="0 0 13 15" fill="none" xmlns="http://www.w3.org/2000/svg">
<path fill-rule="evenodd" clip-rule="evenodd" d="M0.90244 5.96437C1.15466 3.10769 3.71166 0.90918 6.78192 0.90918H7.09895C10.1692 0.90918 12.7262 3.10769 12.9784 5.96437C13.1142 7.50243 12.6053 9.02966 11.5589 10.2244L8.04097 14.241C7.47217 14.8905 6.40869 14.8905 5.83989 14.241L2.32192 10.2244C1.27553 9.02966 0.766642 7.50243 0.90244 5.96437ZM6.94041 3.47878C5.01495 3.47878 3.45405 4.93602 3.45405 6.73361C3.45405 8.5312 5.01495 9.98844 6.94041 9.98844C8.86587 9.98844 10.4268 8.5312 10.4268 6.73361C10.4268 4.93602 8.86587 3.47878 6.94041 3.47878Z" fill="#A2A2A2"/>
</svg>
