<svg width="21" height="21" viewBox="0 0 21 21" fill="none" xmlns="http://www.w3.org/2000/svg">
<path d="M10.5 0C7.69404 0 5.41935 2.07571 5.41935 4.63623C5.41935 7.19676 7.69404 9.27247 10.5 9.27247C13.306 9.27247 15.5806 7.19676 15.5806 4.63623C15.5806 2.07571 13.306 0 10.5 0Z" fill="#C4C4C4"/>
<path d="M5.08065 11.7451C2.27468 11.7451 0 13.8208 0 16.3814V17.8505C0 18.7817 0.739584 19.5757 1.74676 19.7258C7.54388 20.5895 13.4561 20.5895 19.2532 19.7258C20.2604 19.5757 21 18.7817 21 17.8505V16.3814C21 13.8208 18.7253 11.7451 15.9194 11.7451H15.4575C15.2076 11.7451 14.9592 11.7812 14.7216 11.852L13.5489 12.2014C11.5678 12.7917 9.43221 12.7917 7.45105 12.2014L6.27842 11.852C6.04081 11.7812 5.79242 11.7451 5.54247 11.7451H5.08065Z" fill="#C4C4C4"/>
</svg>
