<svg width="45" height="37" viewBox="0 0 45 37" fill="none" xmlns="http://www.w3.org/2000/svg">
<path opacity="0.2" d="M24.8 24.85C24.8 19.35 26.9 14.25 31.1 9.55C35.3 4.85 38.9 1.9 41.9 0.699994L44.15 3.85C41.15 5.45 38.6 7.75 36.5 10.75C34.5 13.75 33.35 16.85 33.05 20.05C33.85 19.55 35.1 19.3 36.8 19.3C38.6 19.3 40.15 20.1 41.45 21.7C42.75 23.2 43.4 25.2 43.4 27.7C43.4 30.2 42.45 32.25 40.55 33.85C38.75 35.35 36.5 36.1 33.8 36.1C31.1 36.1 28.9 35.15 27.2 33.25C25.6 31.35 24.8 28.55 24.8 24.85ZM9.65 36.1C7.05 36.1 4.9 34.7 3.2 31.9C1.5 29.1 0.65 26 0.65 22.6C0.65 19.2 1.35 16.2 2.75 13.6C4.15 10.9 5.9 8.7 8 6.99999C12 3.79999 15.25 1.69999 17.75 0.699994L20 3.85C17 5.45 14.45 7.75 12.35 10.75C10.35 13.75 9.2 16.85 8.9 20.05C9.7 19.55 10.95 19.3 12.65 19.3C14.45 19.3 16 20.1 17.3 21.7C18.6 23.2 19.25 25.2 19.25 27.7C19.25 30.2 18.3 32.25 16.4 33.85C14.6 35.35 12.35 36.1 9.65 36.1Z" fill="#16274C"/>
</svg>
