<svg width="19" height="15" viewBox="0 0 19 15" fill="none" xmlns="http://www.w3.org/2000/svg">
<path d="M9.76325 0.382011C9.42958 -0.127336 8.59917 -0.127338 8.2655 0.382011L5.91564 3.96911C5.75081 4.22072 5.46591 4.39243 5.14118 4.43587L0.737371 5.02504C-0.002279 5.12399 -0.261729 5.95119 0.314302 6.37392L3.59495 8.78143C3.89863 9.00429 4.04142 9.35581 3.96765 9.69896L3.10948 13.6909C2.97382 14.3219 3.7217 14.8122 4.3634 14.5129L8.51014 12.5789C8.82576 12.4317 9.20299 12.4317 9.51861 12.5789L13.6653 14.5129C14.307 14.8122 15.0549 14.3219 14.9193 13.6909L14.0611 9.69896C13.9873 9.35581 14.1301 9.00429 14.4338 8.78143L17.7144 6.37392C18.2905 5.95119 18.031 5.12399 17.2914 5.02504L12.8876 4.43587C12.5628 4.39243 12.2779 4.22072 12.1131 3.96911L9.76325 0.382011Z" fill="#FDC500"/>
</svg>
