<svg width="146" height="32" viewBox="0 0 146 32" fill="none" xmlns="http://www.w3.org/2000/svg">
<path d="M73 0L77.7023 9.52786L88.2169 11.0557L80.6085 18.4721L82.4046 28.9443L73 24L63.5954 28.9443L65.3915 18.4721L57.7831 11.0557L68.2977 9.52786L73 0Z" fill="#C4C4C4"/>
<path d="M110.5 9L113.88 15.8482L121.437 16.9463L115.969 22.2768L117.26 29.8037L110.5 26.25L103.74 29.8037L105.031 22.2768L99.5628 16.9463L107.12 15.8482L110.5 9Z" fill="#C4C4C4"/>
<path d="M139 18L141.057 22.1684L145.657 22.8369L142.329 26.0816L143.114 30.6631L139 28.5L134.886 30.6631L135.671 26.0816L132.343 22.8369L136.943 22.1684L139 18Z" fill="#C4C4C4"/>
<path d="M7 18L9.05725 22.1684L13.6574 22.8369L10.3287 26.0816L11.1145 30.6631L7 28.5L2.8855 30.6631L3.6713 26.0816L0.342604 22.8369L4.94275 22.1684L7 18Z" fill="#C4C4C4"/>
<path d="M35.5 9L38.8798 15.8482L46.4371 16.9463L40.9686 22.2768L42.2595 29.8037L35.5 26.25L28.7405 29.8037L30.0314 22.2768L24.5628 16.9463L32.1202 15.8482L35.5 9Z" fill="#C4C4C4"/>
</svg>
