<svg width="302" height="70" viewBox="0 0 302 70" fill="none" xmlns="http://www.w3.org/2000/svg">
<g clip-path="url(#clip0_165_1844)">
<path d="M53.8367 26.2488C53.8367 31.1802 53.9489 36.1116 53.8051 41.0183C53.6614 45.9251 51.2134 49.8244 48.0676 53.3081C42.4844 59.4548 35.551 63.9177 28.7122 68.4757C27.6601 69.1802 26.5308 69.2929 25.4261 68.5532C18.8504 64.1325 12.2116 59.8105 6.6564 54.0408C2.32871 49.5461 -0.112199 44.3999 -0.00698738 38.0102C0.147323 29.6831 0.0315957 21.3526 0.0315957 13.0256C0.0315957 10.5599 0.424379 9.95753 2.7215 9.1509C10.2336 6.47033 17.7562 3.82851 25.2613 1.12681C26.4062 0.686571 27.6726 0.686571 28.8174 1.12681C36.3763 3.84847 43.9445 6.53843 51.5221 9.19669C53.2195 9.7955 54.0366 10.7888 53.9945 12.7191C53.8893 17.2314 53.9595 21.7506 53.9595 26.2664L53.8367 26.2488ZM26.8535 25.6746H35.9543C40.4889 25.6746 40.4328 25.6746 40.4608 21.1342C40.4608 19.8415 40.0365 19.6196 38.8651 19.6266C31.9843 19.6794 25.0965 19.6477 18.2121 19.6583C16.7672 19.6583 14.8419 19.1863 14.0037 19.926C13.0077 20.789 13.8248 22.7827 13.653 24.2727C13.5092 25.4879 14.0528 25.7134 15.1364 25.6993C19.0363 25.6429 22.9431 25.6746 26.8535 25.6746ZM27.0359 51.3531C29.1576 48.1548 30.4798 44.9282 30.2939 41.1381C30.1221 37.5769 30.2553 33.9981 30.2553 30.4299C30.2553 27.929 30.2553 27.929 27.8495 28.4609C25.0193 29.0843 23.8234 30.599 23.8234 33.5578C23.8234 36.0235 23.9461 38.4892 23.7953 40.9303C23.5569 44.7697 24.7949 48.1055 27.0359 51.3531Z" fill="#A2A2A2"/>
<path d="M185.446 49.5955C185.52 51.0679 184.86 51.561 183.366 51.5786C179.2 51.6315 179.203 51.7019 179.196 47.4715C179.196 44.717 179.196 41.9589 179.151 39.2043C179.119 37.2776 178.484 35.6115 176.545 34.8682C174.549 34.1003 172.687 34.3364 171.049 35.8721C169.997 36.8866 169.801 38.2075 169.783 39.5531C169.745 43.0121 169.717 46.4711 169.783 49.9302C169.808 51.1489 169.433 51.5047 168.216 51.5399C163.604 51.6738 163.604 51.7231 163.604 47.2285C163.604 44.65 163.604 42.0751 163.604 39.4791C163.625 36.4005 162.026 34.516 159.287 34.4139C156.334 34.3047 154.219 36.3089 154.174 39.391C154.117 42.8501 154.123 46.3091 154.191 49.7681C154.219 51.0221 153.925 51.4941 152.56 51.5293C148.131 51.6209 148.131 51.6843 148.131 47.3447C148.131 41.892 148.159 36.4251 148.11 30.99C148.11 29.8452 148.418 29.412 149.59 29.5212C150.698 29.5793 151.809 29.5793 152.918 29.5212C153.511 29.5212 153.97 29.6304 153.97 30.356C153.946 31.6875 154.345 31.5395 155.226 30.8456C158.905 27.9326 163.993 28.2496 167.5 31.5712C168.1 32.1384 168.43 32.5399 169.285 31.7579C175.279 26.3052 183.008 28.5878 185.306 36.4674C185.285 37.5242 185.228 38.5527 185.253 39.5918C185.334 42.9452 184.997 46.2774 185.446 49.5955Z" fill="#A2A2A2"/>
<path d="M189.019 35.8932C189.019 31.3809 189.096 26.8687 188.977 22.36C188.935 20.7432 189.468 20.2289 190.959 20.4719C191.134 20.486 191.31 20.486 191.485 20.4719C195.143 20.4719 195.153 20.4719 195.136 24.2339C195.136 26.1642 195.058 28.1086 195.034 30.0283C195.034 30.4122 194.855 30.8913 195.342 31.1132C195.725 31.2823 196.002 30.9794 196.258 30.761C199.414 27.9923 205.709 28.7109 208.939 31.321C212.331 34.0615 213.94 39.9404 212.415 44.266C210.426 49.923 205.776 52.7198 199.877 51.8427C198.499 51.5959 197.203 51.0089 196.107 50.1343C195.7 49.8349 195.153 49.2361 195.055 50.2471C194.939 51.4059 194.231 51.3038 193.459 51.3249C188.875 51.4306 188.9 51.4341 188.981 46.788C189.033 43.1564 188.981 39.5248 188.981 35.8932H189.019ZM201.094 34.3468C197.363 34.3468 194.925 36.7315 194.925 40.3948C194.925 44.2131 197.205 46.6084 200.887 46.6542C201.687 46.6717 202.482 46.5274 203.225 46.2299C203.968 45.9324 204.644 45.4878 205.212 44.9225C205.781 44.3572 206.23 43.6828 206.533 42.9394C206.837 42.1961 206.988 41.399 206.979 40.5956C206.968 37.0732 204.419 34.3503 201.094 34.3468Z" fill="#A2A2A2"/>
<path d="M97.1487 35.9919C97.1487 31.3634 97.1978 26.7314 97.1172 22.103C97.0926 20.7433 97.545 20.4404 98.8181 20.4439C103.304 20.465 103.304 20.4192 103.307 25.023C103.307 26.7173 103.307 28.4151 103.332 30.1094C103.332 30.8597 103.216 31.6065 104.436 30.7188C107.452 28.5314 110.837 28.3024 114.172 29.8382C117.507 31.374 118.822 34.2342 118.836 37.7778C118.836 41.9413 118.819 46.1048 118.836 50.2648C118.836 51.1489 118.605 51.4448 117.672 51.5188C112.713 51.9133 112.713 51.945 112.713 47.003C112.713 44.5373 112.738 42.0716 112.713 39.6059C112.681 36.2173 111.128 34.4984 108.108 34.4667C105.246 34.4385 103.381 36.316 103.304 39.4932C103.219 42.8888 103.226 46.288 103.283 49.6836C103.304 50.9517 103.083 51.5153 101.596 51.5434C97.1312 51.6245 97.1347 51.7055 97.1347 47.2285C97.1464 43.4923 97.1511 39.7468 97.1487 35.9919Z" fill="#A2A2A2"/>
<path d="M300.561 30.0001C298.692 31.8106 296.808 33.6036 294.95 35.4317C292.603 37.753 292.632 37.753 294.532 40.4582C296.805 43.6883 299.021 46.9606 301.304 50.1836C302.027 51.2087 301.869 51.4764 300.603 51.5187C294.873 51.723 294.873 51.7546 291.793 46.9712C290.91 45.6045 290.012 44.2484 289.202 42.8394C288.563 41.7333 288.083 41.9588 287.182 42.6421C285.498 43.9243 285.386 45.5834 285.428 47.4643C285.505 51.4729 285.449 51.4059 281.43 51.5433C279.855 51.5997 279.392 51.2228 279.371 49.532C279.261 40.2234 279.271 30.9148 279.399 21.6062C279.399 21.0038 279.48 20.6093 280.241 20.6199C281.462 20.6199 282.696 20.56 283.909 20.5001C285.123 20.4403 285.512 20.9123 285.491 22.1522C285.414 26.6679 285.449 31.1837 285.46 35.6959C285.46 36.1397 285.232 36.7526 285.74 36.9781C286.249 37.2035 286.536 36.6258 286.845 36.3158C288.753 34.4172 290.668 32.5222 292.523 30.5743C292.816 30.2179 293.189 29.9363 293.612 29.7526C294.034 29.5689 294.494 29.4884 294.953 29.5175C296.707 29.6021 298.46 29.5422 300.214 29.5422L300.561 30.0001Z" fill="#A2A2A2"/>
<path d="M253.489 45.3369C253.265 47.158 253.388 48.9826 253.451 50.8072C252.7 51.6456 251.581 50.8741 250.768 51.4272C249.879 51.3065 248.977 51.3471 248.102 51.5469L247.492 50.9798C247.45 50.6276 247.412 50.2753 247.369 49.9513C247.369 49.7505 247.397 49.5462 247.415 49.3454C247.198 49.4969 246.843 49.4969 246.843 49.8773C244.276 51.8322 241.393 52.3853 238.258 51.8323C235.196 51.2968 232.594 48.6339 232.356 45.7842C232.089 42.6598 233.916 39.9793 237.024 38.7993C239.64 37.8095 242.449 38.13 245.111 37.496C245.746 37.3445 246.668 37.5734 246.815 36.6294C246.963 35.6854 246.363 34.9387 245.514 34.5618C242.905 33.3994 240.32 33.741 237.739 34.7414C237.069 35.0021 236.273 35.9602 235.789 35.467C234.881 34.5406 234.285 33.2831 233.685 32.1066C233.457 31.6663 234.067 31.4409 234.369 31.2119C237.964 28.4363 246.072 28.1897 249.838 30.7118C251.68 31.9446 252.644 33.7481 253.202 35.8193C253.454 38.9859 253.033 42.1773 253.489 45.3369ZM241.804 47.5807C245.427 47.4574 247.461 45.2876 247.303 42.0821C247.278 41.5573 247.373 40.8916 246.552 41.0571C244.448 41.4798 242.249 41.3882 240.24 42.1773C239.678 42.3575 239.192 42.72 238.858 43.2078C238.525 43.6955 238.361 44.2809 238.395 44.8719C238.426 46.1928 239.177 46.9255 240.261 47.3376C240.761 47.4902 241.281 47.572 241.804 47.5807Z" fill="#A2A2A2"/>
<path d="M144.013 40.5957C144.013 43.7659 143.982 46.9361 144.034 50.0816C144.052 51.0961 143.859 51.6068 142.709 51.5188C141.485 51.4554 140.26 51.4554 139.037 51.5188C138.335 51.5399 137.985 51.3708 137.953 50.5607C137.925 49.3419 137.252 49.7188 136.757 50.2295C134.046 52.9594 128.372 52.7164 125.012 49.8773C123.164 48.3169 122.455 46.1294 122.413 43.7941C122.329 39.4615 122.413 35.1254 122.368 30.7928C122.368 29.7572 122.774 29.5458 123.714 29.5212C128.544 29.3838 128.516 29.3591 128.48 34.1003C128.459 36.8443 128.48 39.5883 128.586 42.3287C128.691 45.0692 130.255 46.4535 133.099 46.5909C135.488 46.7071 137.56 45.0868 137.813 42.6634C138.209 38.8732 137.971 35.0584 137.939 31.2542C137.939 29.8452 138.339 29.493 139.692 29.5176C144.003 29.5881 144.003 29.5177 144.003 33.9277L144.013 40.5957Z" fill="#A2A2A2"/>
<path d="M255.835 39.6588L255.951 38.2744C256.477 38.0314 256.397 37.6263 256.228 37.2177C259.458 30.5533 264.666 27.8903 271.414 29.4402C273.339 29.8805 274.921 30.9196 276.394 32.1842C277.004 32.7161 277.095 33.1881 276.394 33.7305C275.419 34.4702 274.479 35.2522 273.543 36.0377C272.89 36.5872 272.455 36.2596 271.887 35.8228C269.134 33.7094 265.399 34.0017 263.428 36.4533C261.457 38.905 261.752 42.9346 264.158 45.1819C266.206 47.0946 269.53 47.1932 271.968 45.2312C272.76 44.5937 273.23 44.6254 273.876 45.2312C274.17 45.506 274.486 45.7631 274.798 46.0203C277.513 48.2817 277.47 48.8382 274.268 50.536C268.657 53.5195 259.925 52.5332 256.67 45.0129C256.537 44.2696 256.491 43.5017 255.969 42.8994L255.878 41.5116C256.095 40.9105 256.08 40.2493 255.835 39.6588Z" fill="#A2A2A2"/>
<path d="M217.416 41.0042C217.416 39.3663 217.377 37.7248 217.416 36.0728C217.451 35.0161 217.065 34.4983 215.992 34.692C214.217 35.0196 213.705 34.1989 213.968 32.5786C214.01 32.2262 213.995 31.8693 213.923 31.5219C213.677 30.0741 214.059 29.2534 215.725 29.5246C216.862 29.7078 217.479 29.3591 217.307 28.0135C217.251 27.1384 217.276 26.2599 217.381 25.3893C217.517 22.9694 217.521 22.9694 220.004 22.9941C223.392 23.0222 223.392 23.0222 223.392 26.4777C223.392 29.5317 223.392 29.5317 226.471 29.5317C230.409 29.5317 230.378 29.5317 230.276 33.3852C230.248 34.3398 230.031 34.759 228.996 34.6991C227.544 34.6181 226.078 34.7202 224.623 34.6639C223.697 34.6286 223.378 35.0161 223.388 35.9002C223.42 38.5949 223.353 41.2896 223.458 43.9807C223.539 46.0484 224.784 47.017 226.752 46.3478C228.505 45.7525 229.126 46.4288 229.69 47.8976C230.823 50.8494 230.806 51.0079 227.586 51.5856C225.131 52.0259 222.676 52.4592 220.327 50.9692C218.335 49.7117 217.496 47.9469 217.412 45.7243C217.37 44.1674 217.419 42.5858 217.416 41.0042Z" fill="#A2A2A2"/>
<path d="M81.5562 20.4721C85.5227 20.4721 89.4892 20.5073 93.4521 20.4509C94.5604 20.4509 94.9461 20.694 94.9602 21.8951C95.0093 26.3475 95.0584 26.3369 90.6745 26.3475C83.6149 26.3651 76.5587 26.3721 69.5025 26.4426C68.3487 26.4426 67.8612 26.2313 67.8367 24.9315C67.749 20.4721 67.6964 20.4721 72.1082 20.4721H81.5562Z" fill="#A2A2A2"/>
<path d="M84.5548 37.4256C84.5548 39.5391 84.5758 41.6525 84.5548 43.7413C84.5232 46.4571 83.4676 48.8136 82.0017 51.0363C81.5528 51.7197 81.3318 51.85 80.8128 51.0574C79.189 48.5671 78.1825 45.9253 78.207 42.8924C78.2316 39.8596 78.1088 36.7352 78.0527 33.6531C78.0036 31.1381 81.7632 28.2285 84.1199 28.9401C84.7687 29.1338 84.639 29.6446 84.653 30.0673C84.6881 31.2931 84.653 32.533 84.653 33.7447C84.653 34.9564 84.653 36.2104 84.653 37.4256H84.5548Z" fill="#A2A2A2"/>
</g>
<defs>
<clipPath id="clip0_165_1844">
<rect width="301.75" height="68.2647" fill="white" transform="translate(0 0.792236)"/>
</clipPath>
</defs>
</svg>
