<svg width="157" height="63" viewBox="0 0 157 63" fill="none" xmlns="http://www.w3.org/2000/svg">
<g clip-path="url(#clip0_165_1838)">
<path d="M154.723 22.0319C153.882 20.2999 152.751 18.7183 151.377 17.3527C151.101 17.0902 150.805 16.8487 150.491 16.6303C150.256 16.4509 150.01 16.2845 149.755 16.1321H149.702L149.636 16.0938C149.36 15.9471 149.077 15.8147 148.788 15.6971H148.713C147.986 15.4153 147.211 15.2704 146.429 15.2698H146.105C145.245 15.3235 144.407 15.5496 143.643 15.9366C142.74 16.407 141.911 17.0034 141.182 17.7071H141.137L141.092 17.7512C141.063 17.7834 141.031 17.8124 140.996 17.8374L140.855 17.9677C140.355 18.4295 139.853 18.9297 139.271 19.5141L138.858 19.9356C138.336 20.4488 137.817 20.9662 137.303 21.4877C137.463 18.7553 137.635 15.9577 137.774 13.1812C137.774 12.8267 137.811 12.4588 137.84 12.1101C137.944 10.8971 137.969 9.67656 137.915 8.45981V8.1628C137.84 6.77551 137.723 4.68499 136.313 2.89339C135.277 1.55975 133.21 0 129.275 0C128.384 0.00589262 127.495 0.0711925 126.614 0.195447C125.166 0.397136 123.737 0.718925 122.345 1.15736C117.966 2.56764 115.438 4.77122 114.803 7.76616C114.338 9.98506 115.172 11.9165 115.717 13.1946L115.835 13.4705C116.329 14.5915 116.898 15.6779 117.538 16.7242L118.07 17.6573C119.426 20.0766 120.8 22.4866 122.19 24.887L120.08 24.1646L119.543 23.9768C118.761 23.6951 118.07 23.4556 117.427 23.2525L117.251 23.2027L117.126 23.1663H117.007C116.036 22.8472 115.022 22.6697 113.998 22.6393H113.838C113.03 22.636 112.23 22.793 111.485 23.1011C110.661 23.4422 109.922 23.9519 109.317 24.5976C109.115 24.8311 108.923 25.0728 108.742 25.3219L108.699 25.3794L108.654 25.4446C108.282 26.0002 107.978 26.5971 107.748 27.2228V27.2668C107.122 29.0751 106.81 30.9736 106.826 32.8831C104.946 25.6534 98.7837 20.3093 91.5135 20.3093C88.8746 20.3176 86.2851 21.0118 84.0089 22.3212C82.7261 21.2572 81.1133 20.6514 79.434 20.6026C77.7546 20.5539 76.1081 21.0652 74.7634 22.053V18.2494C74.7181 16.3334 73.9167 14.5094 72.528 13.161C71.1393 11.8126 69.2714 11.0451 67.3174 11.0198C65.3369 11.0269 63.4402 11.8045 62.0437 13.1819C60.6473 14.5593 59.8653 16.4239 59.8695 18.3663V26.2685C59.6837 26.0288 59.4848 25.7991 59.2736 25.5806C57.1296 23.3782 54.4311 21.7694 51.4505 20.9167C48.4487 20.0884 45.2718 20.0911 42.2714 20.9244H42.1913C39.7722 21.5459 37.5352 22.7147 35.6597 24.337C35.0674 23.1161 34.1329 22.0857 32.9656 21.3664C31.7982 20.647 30.4462 20.2684 29.0675 20.2748C28.3681 20.2748 27.6745 20.3744 27.0043 20.5699C23.3175 21.6621 21.8423 25.1763 20.9436 27.2726C20.8615 27.468 20.7873 27.6501 20.7091 27.8225C20.4864 28.3437 20.2734 28.8055 20.1034 29.1753C19.9321 29.5335 19.7744 29.8978 19.6306 30.2675C19.527 30.5492 19.4391 30.7427 19.3375 30.9899C18.7222 29.7648 18.1002 28.5429 17.4716 27.3243L17.1004 26.5578C16.1723 24.6034 14.7793 21.6697 11.3152 20.6427C9.5882 20.1252 7.72679 20.2552 6.09208 21.0076C4.45736 21.76 3.1659 23.081 2.46827 24.7145C0.793844 28.5966 2.87271 32.0227 3.98638 33.8603C4.78354 35.1633 5.80734 36.8878 6.76666 38.6833C7.17697 39.4056 7.33327 39.7103 8.23984 41.4368L8.3727 41.6763L9.5235 43.8454C9.79704 44.3436 10.0979 44.9146 10.4516 45.5814C10.8287 46.3038 11.2565 47.0837 11.7274 47.9517C11.6473 48.0609 11.5652 48.1759 11.4695 48.2851L11.4031 48.3636L11.2995 48.3138C10.5643 47.9475 9.78423 47.6751 8.97839 47.5033C8.41011 47.374 7.82871 47.3085 7.24535 47.3078C5.96906 47.3074 4.71514 47.6365 3.60971 48.2622C2.50429 48.8878 1.58634 49.7879 0.948195 50.8719C0.310681 51.9638 -0.0165389 53.2034 0.000643459 54.4615C0.0178258 55.7196 0.378781 56.9501 1.04589 58.0249C3.25565 61.6387 7.76116 62.9551 11.2644 62.9551C12.1924 62.959 13.1205 62.8651 14.0271 62.6735C21.8951 60.9968 25.3006 53.5622 27.7858 48.1337L28.286 47.0415C28.7985 45.8895 29.332 44.7467 29.8862 43.6135L30.3805 42.55C30.883 44.1323 31.6204 45.6334 32.5688 47.0051C33.1549 47.8597 33.8095 48.6664 34.5304 49.4137C35.2631 50.1476 36.0603 50.8163 36.9121 51.4161C37.7718 52.0024 38.6901 52.5083 39.6475 52.926C40.6244 53.3744 41.6462 53.7116 42.6993 53.9396C43.3441 54.0948 44.0006 54.2136 44.661 54.2922C45.2666 54.3554 45.8723 54.3823 46.4819 54.3727H47.0192C49.2031 54.375 51.371 54.0081 53.4277 53.2882C54.3734 52.9816 55.2897 52.5888 56.1631 52.1174C57.7157 51.2331 58.9905 49.9471 59.848 48.4001C60.0749 50.1639 60.9477 51.7868 62.3038 52.9666C63.6599 54.1464 65.407 54.8028 67.2197 54.8134C68.816 54.8134 70.3673 54.3056 71.6451 53.3667V55.6527C71.6451 57.5894 72.4296 59.4468 73.826 60.8163C75.2224 62.1858 77.1163 62.9551 79.0911 62.9551C81.0659 62.9551 82.9599 62.1858 84.3562 60.8163C85.7526 59.4468 86.5371 57.5894 86.5371 55.6527V53.658C88.108 54.1945 89.7609 54.4685 91.4256 54.4666C100.169 54.4666 107.283 46.8307 107.298 37.4454C107.478 38.0145 107.726 38.5606 108.035 39.0741C108.504 39.7985 109.117 40.4212 109.842 40.9022C110.883 41.5835 112.1 41.9622 113.351 41.9944H113.926C114.899 41.9715 115.867 41.8358 116.808 41.59H116.964L121.04 40.6856C120.399 41.5536 119.772 42.3987 119.168 43.2379L118.828 43.7074C118.336 44.3723 117.913 44.9586 117.538 45.522L117.435 45.681L117.361 45.7903L117.325 45.8401V45.8918C116.741 46.7262 116.284 47.6395 115.967 48.6032C115.709 49.4189 115.63 50.2787 115.733 51.1267C115.846 51.9928 116.149 52.8264 116.616 53.5698V53.6062C116.786 53.8668 116.978 54.1198 117.169 54.3286L117.214 54.3727L117.251 54.4225C117.456 54.662 117.685 54.8862 117.915 55.1027C118.185 55.3653 118.476 55.6067 118.785 55.827C120.242 56.8043 121.837 57.5708 123.517 58.1034C124.949 58.571 126.436 58.8507 127.94 58.935H128.37C128.616 58.9375 128.862 58.9254 129.107 58.8986C129.414 58.8737 129.718 58.8335 130.019 58.776H130.152C130.461 58.7051 130.768 58.617 131.067 58.5154H131.112C131.939 58.2141 132.692 57.7461 133.323 57.1415C133.929 56.5359 134.403 55.8154 134.716 55.0242C135.073 54.076 135.287 53.082 135.351 52.0733V51.943C135.356 51.8997 135.356 51.856 135.351 51.8127V51.646C135.416 50.9236 135.447 50.2587 135.482 49.4769V48.3656L135.734 48.812L136.021 49.3409C136.42 50.0633 136.758 50.6707 137.112 51.2494L137.202 51.3931L137.282 51.5234V51.5674L137.321 51.6249C137.885 52.4834 138.575 53.2537 139.368 53.9166C140.003 54.5011 140.756 54.9475 141.58 55.2254H141.625C142.264 55.4362 142.934 55.5435 143.608 55.5435C143.817 55.5435 144.026 55.53 144.233 55.5071H144.302C144.618 55.4726 144.933 55.4208 145.245 55.348H145.376C145.679 55.2714 145.978 55.1736 146.269 55.0606C146.617 54.9322 146.953 54.7789 147.279 54.6045C148.599 53.8817 149.814 52.9892 150.892 51.9507C152.165 50.7492 153.257 49.3763 154.135 47.8731C154.474 47.2742 154.732 46.6346 154.903 45.9704V45.8477C154.976 45.5478 155.03 45.2439 155.065 44.9376V44.8418C155.148 43.9827 155.048 43.116 154.77 42.2971C154.48 41.4879 154.017 40.7485 153.412 40.128C152.698 39.4007 151.882 38.7774 150.988 38.277H150.935L150.876 38.2425L150.759 38.1774L150.611 38.0816C150.023 37.7424 149.366 37.3592 148.672 37.0277L148.098 36.723C147.182 36.2215 146.255 35.7392 145.318 35.2763L149.358 34.3585H149.515C150.662 34.146 151.768 33.758 152.793 33.2088C153.902 32.6424 154.825 31.7802 155.456 30.7216C155.87 29.9839 156.122 29.1696 156.193 28.3284C156.517 25.7186 155.397 23.4115 154.727 22.0319H154.723Z" fill="white" fill-opacity="0.96"/>
<path d="M124.268 36.2L126.7 35.6481C126.751 35.6367 126.837 35.6175 126.938 35.5849C127.61 35.4082 128.186 34.9827 128.544 34.3979C128.903 33.8132 129.015 33.1148 128.859 32.4501L128.849 32.4079C128.769 32.0895 128.628 31.7885 128.435 31.5208C128.163 31.1817 127.825 30.8979 127.442 30.6853C126.991 30.4333 126.52 30.2192 126.032 30.0453L123.365 29.0892C121.868 28.5431 120.372 28.0123 118.859 27.493C117.88 27.1519 117.05 26.8511 116.329 26.6307C116.192 26.5935 116.056 26.5526 115.921 26.5081C115.049 26.2475 114.436 26.1383 113.918 26.1345C113.572 26.1218 113.227 26.1833 112.908 26.3146C112.574 26.4562 112.275 26.6652 112.029 26.9277C111.907 27.0636 111.792 27.2056 111.685 27.3531C111.477 27.6668 111.305 28.0023 111.173 28.3534C110.678 29.7886 110.431 31.2951 110.442 32.8103C110.452 34.1785 110.489 35.9356 111.257 37.1274C111.443 37.434 111.691 37.6984 111.986 37.9035C112.533 38.2733 113.084 38.3231 113.66 38.3633C114.52 38.4227 115.35 38.2177 116.181 38.028L124.262 36.1981L124.268 36.2ZM151.406 23.5362C150.742 22.1693 149.849 20.9212 148.764 19.8437C148.624 19.7067 148.474 19.5799 148.315 19.4643C148.168 19.3563 148.016 19.2559 147.858 19.1635C147.696 19.0763 147.529 18.9976 147.358 18.9278C147.02 18.7978 146.659 18.739 146.297 18.7554C145.951 18.7745 145.613 18.8703 145.306 19.0294C144.843 19.2555 144.341 19.6195 143.673 20.227C143.581 20.317 143.466 20.4186 143.36 20.5144C142.811 21.0222 142.198 21.6488 141.469 22.3769C140.342 23.494 139.234 24.6169 138.13 25.7493L136.156 27.7574C135.796 28.1237 135.468 28.5192 135.176 28.9397C134.925 29.2955 134.748 29.6958 134.654 30.1181C134.601 30.4426 134.609 30.7737 134.677 31.0954L134.687 31.1375C134.843 31.8016 135.256 32.3804 135.838 32.7521C136.42 33.1238 137.127 33.2594 137.809 33.1303C137.892 33.119 137.973 33.1036 138.054 33.0843L148.569 30.7006C149.399 30.5129 150.24 30.3404 150.984 29.915C151.484 29.6334 151.959 29.3517 152.285 28.7845C152.459 28.4721 152.564 28.1275 152.594 27.7728C152.756 26.3663 152.008 24.7702 151.406 23.5362ZM132.581 27.8724C133.343 26.9335 133.343 25.5347 133.409 24.3888C133.64 20.5661 133.88 16.7434 134.074 12.9188C134.146 11.4702 134.304 10.0407 134.216 8.5806C134.144 7.37726 134.136 5.9938 133.361 5.00507C131.993 3.26137 129.074 3.40508 127.083 3.67717C126.469 3.76038 125.859 3.87292 125.256 4.01442C124.65 4.15621 124.049 4.31142 123.463 4.49729C121.552 5.11045 118.865 6.23715 118.412 8.39665C118.154 9.61724 118.764 10.8647 119.233 11.9799C119.805 13.3288 120.585 14.5456 121.296 15.816C123.177 19.1712 125.092 22.5072 127.001 25.8451C127.573 26.8415 128.193 28.1024 129.297 28.6197C129.371 28.6504 129.445 28.6772 129.521 28.7021C130.016 28.8861 130.557 28.9205 131.071 28.8037L131.163 28.7845C131.639 28.6561 132.069 28.4013 132.407 28.0506C132.47 27.9931 132.526 27.9356 132.583 27.8724H132.581ZM131.669 38.1066C131.371 37.6963 130.949 37.3888 130.463 37.2281C129.976 37.0673 129.45 37.0616 128.961 37.2117C128.845 37.249 128.733 37.2944 128.625 37.3478C128.457 37.4318 128.296 37.5298 128.146 37.6409C127.716 37.9733 127.331 38.3592 127.003 38.7887C126.919 38.8941 126.841 39.034 126.739 39.126L125.047 41.4062C124.09 42.6862 123.142 43.9681 122.206 45.2691C121.593 46.1103 121.065 46.8212 120.645 47.4478C120.567 47.5666 120.485 47.6969 120.411 47.8042C119.909 48.563 119.625 49.1187 119.479 49.6131C119.369 49.9415 119.335 50.2895 119.377 50.6324C119.424 50.9889 119.547 51.3318 119.737 51.6403C119.838 51.7936 119.948 51.9431 120.065 52.0868C120.318 52.3726 120.603 52.6297 120.915 52.8533C122.083 53.6504 123.361 54.2233 124.705 54.6659C125.825 55.03 126.987 55.2485 128.163 55.3136C128.365 55.3232 128.566 55.3194 128.765 55.3021C128.95 55.2852 129.134 55.2596 129.316 55.2255C129.499 55.1838 129.679 55.1327 129.855 55.0722C130.199 54.9458 130.512 54.75 130.774 54.4973C131.022 54.254 131.213 53.9608 131.333 53.637C131.528 53.1579 131.657 52.5524 131.743 51.6518C131.749 51.5235 131.768 51.3702 131.782 51.2303C131.848 50.483 131.88 49.6016 131.926 48.5707C132.01 46.9822 132.075 45.4014 132.126 43.8167L132.235 40.9961C132.261 40.3485 132.239 39.628 132.055 38.9823C131.975 38.6721 131.844 38.3765 131.669 38.1066ZM150.763 42.5195C150.412 42.1382 149.911 41.7607 149.122 41.2931C149.009 41.2299 148.874 41.1475 148.751 41.0747C148.094 40.6857 147.303 40.2795 146.379 39.787C144.958 39.0206 143.538 38.2771 142.102 37.5375L139.568 36.2192C139.437 36.1808 139.304 36.0889 139.179 36.0295C138.692 35.7854 138.174 35.6044 137.639 35.491C137.455 35.4561 137.268 35.4369 137.081 35.4335C136.959 35.4329 136.838 35.44 136.717 35.4546C136.21 35.5314 135.74 35.7634 135.375 36.1175C135.011 36.4716 134.769 36.9297 134.685 37.4263C134.648 37.7425 134.66 38.0625 134.722 38.3729C134.845 39.0359 135.146 39.6893 135.459 40.2622L136.811 42.7513C137.565 44.1539 138.327 45.5489 139.109 46.94C139.613 47.8464 140.033 48.6224 140.426 49.2662C140.5 49.387 140.584 49.5172 140.648 49.6303C141.127 50.4025 141.51 50.8892 141.899 51.2399C142.158 51.4842 142.469 51.6693 142.809 51.7819C143.15 51.8945 143.511 51.9319 143.868 51.8914C144.054 51.8691 144.239 51.8372 144.421 51.7956C144.795 51.6974 145.156 51.5579 145.498 51.3797C146.526 50.8144 147.474 50.1186 148.317 49.3103C149.329 48.3331 150.224 47.2677 150.92 46.049C151.017 45.8766 151.099 45.6984 151.17 45.5125C151.235 45.3423 151.292 45.169 151.34 44.9932C151.381 44.8131 151.412 44.633 151.433 44.4509C151.468 44.0932 151.426 43.7322 151.31 43.3913C151.196 43.0642 151.009 42.7659 150.763 42.5175V42.5195Z" fill="#A2A2A2"/>
<path fill-rule="evenodd" clip-rule="evenodd" d="M63.4959 18.3166C63.4959 16.2663 65.1977 14.5916 67.2531 14.5916C69.2792 14.5916 70.9243 16.2663 71.0122 18.3472V47.4229C71.0122 49.4732 69.3085 51.1479 67.2531 51.1479C66.7563 51.1477 66.2645 51.0509 65.806 50.8631C65.3476 50.6753 64.9317 50.4003 64.5823 50.0539C64.2329 49.7075 63.957 49.2966 63.7706 48.845C63.5841 48.3934 63.4907 47.9101 63.4959 47.4229V18.3166ZM60.0005 36.2766C59.9712 36.8534 59.8247 37.9226 59.0627 38.7025C58.2401 39.5398 57.1245 39.741 56.4778 39.741C53.7913 39.7564 51.1048 39.764 48.4183 39.7698C45.7318 39.7774 43.0453 39.7851 40.3588 39.7985C40.5932 40.5209 41.0622 41.6189 42.1192 42.6287C42.7639 43.2361 43.3813 43.581 43.6471 43.7266C43.9694 43.9278 45.0851 44.5065 46.4645 44.5065C47.9337 44.5065 49.2252 44.0428 50.4893 43.4085L50.5929 43.3549C51.4721 42.9084 52.3767 42.4486 53.336 42.2819C54.2739 42.1381 55.2742 42.3106 56.0069 42.9468C56.8881 43.6979 57.2417 44.7939 56.9174 45.9206C56.5364 47.191 55.4501 48.289 54.3051 48.952C53.6499 49.328 52.9621 49.6467 52.2497 49.9043C50.4325 50.5367 48.5109 50.8311 46.5836 50.7723C46.1147 50.7723 45.6146 50.7723 45.1144 50.7148C44.5868 50.6573 44.0593 50.5405 43.5591 50.4255C42.7483 50.253 41.9598 49.9914 41.2087 49.6456C40.4573 49.3189 39.7396 48.9224 39.0654 48.4614C38.3929 47.9874 37.7645 47.4558 37.1877 46.8729C36.6142 46.2828 36.0932 45.6456 35.6305 44.9683C34.046 42.5999 33.3114 39.6835 33.4579 36.8534C33.5751 34.0826 34.5149 31.31 36.2186 29.0585C36.4023 28.7749 36.6153 28.5354 36.8165 28.3093C36.9044 28.2096 36.9904 28.1138 37.0705 28.018C39.1728 25.4964 41.9824 24.6993 43.141 24.3697L43.2055 24.3505C45.557 23.6957 48.0479 23.6957 50.3995 24.3505C50.9582 24.4961 54.1 25.4485 56.5364 28.018C56.6536 28.133 56.978 28.5086 57.3883 29.0585C58.4304 30.4503 59.196 32.0221 59.6449 33.6917L59.6488 33.7071C59.8247 34.3413 60.0005 35.2074 60.0005 36.2747V36.2766ZM42.7659 31.5131C41.6066 32.4377 40.7997 33.7193 40.476 35.1499H53.2774C52.932 33.7205 52.1171 32.442 50.9582 31.5112C49.7909 30.5931 48.3436 30.0851 46.8474 30.0683C45.3591 30.0828 43.9197 30.5914 42.7639 31.5112L42.7659 31.5131ZM91.4472 23.86C88.1003 23.86 85.0465 25.3335 82.8739 27.7306V27.6425C82.8303 26.6798 82.4028 25.7725 81.6835 25.1161C80.9642 24.4597 80.0107 24.1068 79.0285 24.1334C78.0464 24.1601 77.1142 24.5642 76.433 25.2585C75.7518 25.9529 75.3761 26.882 75.3868 27.8456V55.5934C75.3845 56.0786 75.4801 56.5595 75.6681 57.0083C75.856 57.4572 76.1327 57.8651 76.4821 58.2087C76.8315 58.5522 77.2467 58.8246 77.7039 59.0101C78.1611 59.1956 78.6512 59.2906 79.146 59.2896C79.6406 59.2904 80.1305 59.1952 80.5874 59.0096C81.0444 58.8239 81.4594 58.5515 81.8086 58.208C82.1578 57.8645 82.4343 57.4566 82.6221 57.0079C82.81 56.5591 82.9055 56.0784 82.9032 55.5934V46.9304C85.0758 49.2988 88.1003 50.8011 91.4765 50.8011C98.2016 50.8011 103.662 44.8227 103.662 37.3727C103.633 29.9246 98.1723 23.86 91.4472 23.86ZM89.8041 44.7652C85.9863 44.7652 82.8739 41.502 82.8739 37.4321C82.8739 33.3315 85.957 30.0683 89.8041 30.0683C93.6199 30.0683 96.7323 33.3315 96.7323 37.4321C96.703 41.502 93.6199 44.7652 89.8041 44.7652ZM27.8211 39.308L26.5883 41.9657C26.0295 43.1192 25.4707 44.3034 24.9432 45.4876L24.4332 46.5989C22.0847 51.7189 19.3005 57.7969 13.2281 59.0865C10.2915 59.7227 5.85826 58.8566 4.21315 56.1414C2.56999 53.3994 5.0064 50.2511 8.14814 50.9735C8.64441 51.0808 9.13091 51.3184 9.62327 51.5599C10.4419 51.9622 11.2723 52.3666 12.1711 52.1864C13.0229 52.0427 13.5504 51.4353 14.2265 50.6554C15.1643 49.5881 15.5766 48.4614 15.7524 47.7965L15.7094 47.6969C15.6958 47.6625 15.6808 47.6286 15.6645 47.5953C14.9005 46.1965 14.2323 44.9472 13.6755 43.9029C13.3624 43.3132 13.0466 42.7249 12.7279 42.1381L11.4481 39.7544C10.5103 38.0107 10.354 37.7233 9.93979 36.9703C9.02664 35.28 8.06696 33.6142 7.06182 31.9749C5.97549 30.1833 4.85986 28.1924 5.77034 26.0827C6.11256 25.2659 6.75517 24.605 7.57083 24.2309C8.38649 23.8569 9.31568 23.797 10.1742 24.0631C12.0636 24.6245 12.9018 26.3893 13.6833 28.0372C13.8259 28.3361 13.9647 28.6312 14.1092 28.9129C15.3714 31.3675 16.6043 33.822 17.8371 36.2766C17.9465 36.52 18.1107 36.8515 18.3139 37.2577C18.4936 37.6179 18.7027 38.0376 18.9234 38.4994L19.2497 39.1662C19.3767 39.4268 19.4881 39.6491 19.5702 39.8273C20.1426 38.4285 20.7229 37.0354 21.3012 35.6405C21.8815 34.2474 22.4618 32.8544 23.0343 31.4537C23.0499 31.377 23.1867 31.0781 23.3938 30.6278C23.5677 30.2465 23.7904 29.7579 24.0327 29.2022L24.2808 28.6139C25.0428 26.7936 25.9611 24.6034 27.997 24.0056C28.7196 23.7999 29.4896 23.8201 30.2 24.0632C30.9104 24.3063 31.526 24.7603 31.9613 25.3622C32.4009 25.9677 32.5767 26.6614 32.606 27.355C32.6295 28.888 31.8753 30.532 31.2266 31.9423C31.0703 32.2872 30.9179 32.6168 30.787 32.9272L30.7089 33.0958C30.5291 33.4925 30.0407 34.5655 29.2005 36.3341C28.8977 36.9664 28.6066 37.6026 28.3115 38.2445L27.8211 39.308Z" fill="#A2A2A2"/>
</g>
<defs>
<clipPath id="clip0_165_1838">
<rect width="156.25" height="62.9552" fill="white"/>
</clipPath>
</defs>
</svg>
